<svg xmlns="http://www.w3.org/2000/svg" width="17" height="14" viewBox="0 0 17 14"><g><g><path fill="#fff" d="M16.984 1.656a6.87 6.87 0 0 1-2 .556A3.538 3.538 0 0 0 16.517.256c-.673.406-1.418.7-2.211.858a3.452 3.452 0 0 0-2.541-1.116c-1.923 0-3.482 1.583-3.482 3.535 0 .277.031.547.09.805C5.48 4.191 2.913 2.784 1.197.645c-.3.522-.472 1.13-.472 1.777 0 1.226.615 2.308 1.549 2.942a3.425 3.425 0 0 1-1.577-.441v.044c0 1.713 1.2 3.141 2.792 3.466a3.42 3.42 0 0 1-1.572.06c.443 1.405 1.73 2.428 3.253 2.456a6.917 6.917 0 0 1-5.154 1.463 9.737 9.737 0 0 0 5.336 1.589c6.403 0 9.905-5.387 9.905-10.058 0-.153-.003-.306-.01-.458a7.13 7.13 0 0 0 1.737-1.83z"/></g></g></svg>